# xmcd
#
# Track frame offsets:
#  150
#  24631
#  36228
#  59572
#  75381
#  87590
#  126505
#  148620
#  165942
#  184992
#  208986
#  233859
#  249098
#  266134
#  286763
#  298782
#
# Disc length: 4210 seconds
#
# Revision: 0
# Processed by: cddbd v1.5.1PL2 Copyright (c) Steve Scherf et al.
# Submitted via: Collectorz.com_Music_Collector 6.11
#
DISCID=f0107010
DTITLE=B. B. King - His Definitive Greatest Hits [CD1]
DYEAR=1999
DGENRE=Blues
TTITLE0=The Thrill Is Gone
TTITLE1=Paying The Cost To Be The Boss
TTITLE2=Don't Answer The Door (Parts One and Two)
TTITLE3=I Like To Live The Love
TTITLE4=How Blue Can You Get
TTITLE5=Why I Sing The Blues
TTITLE6=Chains And Things
TTITLE7=To Know You Is To Love You
TTITLE8=When Love Comes To Town (7" Edit and Mix)
TTITLE9=Playin' With My Friends
TTITLE10=Never Make Your Move Too Soon
TTITLE11=Better Not Look Down
TTITLE12=There Must Be A Better World Somewhere
TTITLE13=Hummingbird
TTITLE14=Everyday I Have The Blues (Live)
TTITLE15=Sweet Little Angel (Live)
EXTD=
EXTT0=
EXTT1=
EXTT2=
EXTT3=
EXTT4=
EXTT5=
EXTT6=
EXTT7=
EXTT8=
EXTT9=
EXTT10=
EXTT11=
EXTT12=
EXTT13=
EXTT14=
EXTT15=
PLAYORDER=
